<svg xmlns="http://www.w3.org/2000/svg" viewBox="0 0 400 400" width="400" height="400">
  <rect width="400" height="400" fill="#5e3a1f"/>
  <rect x="0" y="0" width="65" height="400" fill="#2e1c0d" opacity="0.1"/><path d="M0 0 Q 30 200 10 400" stroke="#2e1c0d" stroke-width="0.5" fill="none" opacity="0.4"/><rect x="67" y="0" width="65" height="400" fill="#2e1c0d" opacity="0.14"/><path d="M67 0 Q 97 200 77 400" stroke="#2e1c0d" stroke-width="0.5" fill="none" opacity="0.4"/><rect x="134" y="0" width="65" height="400" fill="#2e1c0d" opacity="0.18"/><path d="M134 0 Q 164 200 144 400" stroke="#2e1c0d" stroke-width="0.5" fill="none" opacity="0.4"/><rect x="201" y="0" width="65" height="400" fill="#2e1c0d" opacity="0.22"/><path d="M201 0 Q 231 200 211 400" stroke="#2e1c0d" stroke-width="0.5" fill="none" opacity="0.4"/><rect x="268" y="0" width="65" height="400" fill="#2e1c0d" opacity="0.26"/><path d="M268 0 Q 298 200 278 400" stroke="#2e1c0d" stroke-width="0.5" fill="none" opacity="0.4"/><rect x="335" y="0" width="65" height="400" fill="#2e1c0d" opacity="0.30000000000000004"/><path d="M335 0 Q 365 200 345 400" stroke="#2e1c0d" stroke-width="0.5" fill="none" opacity="0.4"/>
  <rect x="0" y="0" width="400" height="400" fill="none" stroke="rgba(0,0,0,0.05)" stroke-width="2"/>
</svg>